HIERARCHY
ROOT Hips
{
	OFFSET -0.179506 -22.333345 2.821913
	CHANNELS 6 Xposition Yposition Zposition Zrotation Yrotation Xrotation 
	JOINT LeftUpLeg
	{
		OFFSET 6.951974 -9.140623 -0.681533
		CHANNELS 3 Zrotation Yrotation Xrotation
		JOINT LeftLeg
		{
			OFFSET 3.427654 -37.519855 -0.449580
			CHANNELS 3 Zrotation Yrotation Xrotation
			JOINT LeftFoot
			{
				OFFSET -1.359570 -39.796059 -4.369333
				CHANNELS 3 Zrotation Yrotation Xrotation
				JOINT LeftToe
				{
					OFFSET 2.635814 -5.579078 11.928840
					CHANNELS 3 Zrotation Yrotation Xrotation
					End Site
					{
						OFFSET 0.000000 0.000000 0.000000
					}
				}
			}
		}
	}
	JOINT RightUpLeg
	{
		OFFSET -6.767048 -9.052170 -0.431982
		CHANNELS 3 Zrotation Yrotation Xrotation
		JOINT RightLeg
		{
			OFFSET -3.829005 -38.256897 -0.885003
			CHANNELS 3 Zrotation Yrotation Xrotation
			JOINT RightFoot
			{
				OFFSET 1.577377 -39.841461 -4.231180
				CHANNELS 3 Zrotation Yrotation Xrotation
				JOINT RightToe
				{
					OFFSET -2.537174 -4.814398 12.334795
					CHANNELS 3 Zrotation Yrotation Xrotation
					End Site
					{
						OFFSET 0.000000 0.000000 0.000000
					}
				}
			}
		}
	}
	JOINT Spine
	{
		OFFSET -0.253288 10.896323 -2.669631
		CHANNELS 3 Zrotation Yrotation Xrotation
		JOINT Spine1
		{
			OFFSET 0.548704 13.518043 0.109247
			CHANNELS 3 Zrotation Yrotation Xrotation
			JOINT Spine2
			{
				OFFSET 0.145701 5.292222 2.542457
				CHANNELS 3 Zrotation Yrotation Xrotation
				JOINT Neck
				{
					OFFSET -0.277840 21.387037 -4.285703
					CHANNELS 3 Zrotation Yrotation Xrotation
					JOINT Head
					{
						OFFSET 0.515184 6.496960 5.134897
						CHANNELS 3 Zrotation Yrotation Xrotation
						End Site
						{
							OFFSET 0.000000 0.000000 0.000000
						}
					}
				}
				JOINT LeftShoulder
				{
					OFFSET 7.884473 12.174932 -3.408961
					CHANNELS 3 Zrotation Yrotation Xrotation
					JOINT LeftArm
					{
						OFFSET 9.097692 3.046888 -0.886815
						CHANNELS 3 Zrotation Yrotation Xrotation
						JOINT LeftForeArm
						{
							OFFSET 25.961220 -1.277207 -2.745643
							CHANNELS 3 Zrotation Yrotation Xrotation
							JOINT LeftHand
							{
								OFFSET 24.923361 0.898606 -0.117091
								CHANNELS 3 Zrotation Yrotation Xrotation
								End Site
								{
									OFFSET 0.000000 0.000000 0.000000
								}
							}
						}
					}
				}
				JOINT RightShoulder
				{
					OFFSET -8.175920 11.883285 -3.861528
					CHANNELS 3 Zrotation Yrotation Xrotation
					JOINT RightArm
					{
						OFFSET -9.601238 3.255117 -0.914307
						CHANNELS 3 Zrotation Yrotation Xrotation
						JOINT RightForeArm
						{
							OFFSET -25.374195 -1.332924 -2.140099
							CHANNELS 3 Zrotation Yrotation Xrotation
							JOINT RightHand
							{
								OFFSET -25.529810 0.777228 -0.555919
								CHANNELS 3 Zrotation Yrotation Xrotation
								End Site
								{
									OFFSET 0.000000 0.000000 0.000000
								}
							}
						}
					}
				}
			}
		}
	}
}
MOTION
Frames: 18
Frame Time: 0.033333
-15.031278 17.463245 97.038048 -177.576408 0.910341 85.452816 0.380577 0.720101 5.824354 1.795970 -6.139586 -0.770373 -6.677840 4.840689 -2.148999 nan nan nan 0.383313 -4.151932 8.042069 0.084031 -3.463267 -1.585171 11.504332 -0.265204 0.792571 nan nan nan -0.507653 2.225458 7.655646 1.952728 -3.382822 1.225665 2.019562 -0.662864 -0.521164 1.712945 -3.119445 0.176073 4.457855 -5.836280 -3.419365 -18.842692 4.284375 2.234432 -60.987508 -7.210196 13.677637 -1.610634 -26.733487 5.567221 -3.958820 -16.812836 -25.268003 18.619276 -3.479863 -0.613176 60.517721 4.888223 13.957437 -5.589251 30.218296 -0.947984 9.294021 10.252394 -18.092530 
-15.050270 17.464172 97.038124 -177.612589 0.934039 85.385740 0.398703 0.756186 5.914629 1.782674 -6.112087 -0.761468 -6.601790 4.836293 -2.143573 nan nan nan 0.403966 -4.055907 8.106295 0.027831 -3.168576 -1.501524 11.449059 -0.236549 0.948876 nan nan nan -0.375009 2.142927 7.800161 1.892210 -3.378083 1.091774 1.959260 -0.653761 -0.460294 1.750246 -3.158324 0.053817 4.391184 -5.801871 -3.215020 -18.907206 4.272172 2.214145 -60.866566 -7.141721 13.623219 -1.624484 -26.800147 5.581683 -3.983666 -16.868160 -25.307033 18.597892 -3.353701 -0.626811 60.484435 4.919209 14.015595 -5.339275 30.132993 -0.913820 9.226490 10.290552 -18.618568 
-15.056928 17.469408 97.042107 -177.648607 0.963221 85.370011 0.450863 0.810583 5.957707 1.734377 -6.152858 -0.757510 -6.534123 4.830356 -2.220281 nan nan nan 0.416041 -4.069664 8.105606 0.026004 -3.002337 -1.415546 11.478591 -0.211254 0.996158 nan nan nan -0.276133 2.110861 7.887400 1.851974 -3.361554 0.967842 1.913596 -0.634064 -0.414908 1.726432 -3.177635 -0.002948 4.396568 -5.850458 -3.151067 -18.879598 4.284754 2.164212 -60.824471 -7.076445 13.648907 -1.755811 -26.865911 5.789622 -3.703894 -16.801556 -25.336678 18.585160 -3.326119 -0.661495 60.463112 4.897480 13.990834 -5.058799 30.095784 -0.953759 8.825000 10.290623 -19.092247 
-15.067917 17.469341 97.054718 -177.633769 0.973230 85.369554 0.445786 0.840331 5.978858 1.767685 -6.215407 -0.748223 -6.493025 4.803999 -2.262991 nan nan nan 0.398691 -4.085296 8.142032 0.011896 -2.928306 -1.442015 11.473686 -0.173254 1.006585 nan nan nan -0.183595 2.097664 7.896579 1.807691 -3.374191 0.948194 1.860823 -0.610800 -0.386951 1.671281 -3.211054 -0.041805 4.463301 -5.873787 -3.210570 -18.871222 4.212620 2.142207 -60.771175 -7.034287 13.635381 -1.837306 -26.905515 5.904819 -3.612621 -16.759586 -25.379348 18.540894 -3.252350 -0.639454 60.465074 4.837801 13.965235 -5.099104 30.253775 -0.796658 8.885821 10.236923 -19.031434 
-15.075016 17.477287 97.052223 -177.598634 0.958107 85.358817 0.369992 0.879448 6.021181 1.902645 -6.245473 -0.790887 -6.498410 4.777467 -2.235305 nan nan nan 0.396860 -4.093187 8.211810 -0.085191 -2.877358 -1.549289 11.503323 -0.171602 1.057942 nan nan nan -0.149841 2.099287 7.933558 1.783139 -3.390895 0.886368 1.846258 -0.616651 -0.314673 1.666269 -3.187670 -0.179520 4.518694 -5.833802 -3.113197 -18.812649 4.160064 2.155748 -60.879560 -7.076104 13.571869 -1.825708 -26.855195 5.845308 -3.634839 -16.823971 -25.532631 18.477973 -3.276896 -0.664424 60.540966 4.836564 13.935960 -5.346635 30.329571 -0.608657 9.285657 10.196762 -18.607801 
-15.087521 17.482552 96.988274 -177.547559 1.045351 85.221533 0.376915 0.971465 6.152313 2.574709 -6.337744 -0.943361 -8.121701 4.141501 -2.095502 nan nan nan 0.524442 -4.194490 8.287577 -0.261824 -3.169477 -1.426992 12.288859 0.165797 1.068078 nan nan nan -0.394165 2.651882 7.661658 2.006796 -3.028935 2.090063 2.308565 -0.943654 -0.750414 1.614280 -3.298469 -0.775823 4.473145 -6.176378 -3.177999 -18.489614 3.545244 2.136195 -61.956168 -7.631858 13.692358 -1.207203 -26.024603 5.036175 -3.767421 -17.805623 -25.238457 17.704538 -3.904111 -1.141922 61.081637 5.039419 13.388728 -5.385944 30.094899 -0.329002 10.279230 11.128921 -17.786828 
-15.080502 17.501062 96.961037 -177.506141 1.069661 85.226869 0.440611 0.939329 6.145423 2.497897 -6.257385 -0.954671 -8.331489 4.086681 -2.064727 nan nan nan 0.586515 -4.048499 8.238675 -0.212252 -3.387064 -1.323547 12.559672 0.174682 1.038331 nan nan nan -0.375907 2.621406 7.733599 2.017689 -3.031027 1.981633 2.317749 -0.922553 -0.705712 1.603920 -3.276589 -0.925611 4.500005 -6.293517 -2.975073 -18.407389 3.501156 2.155251 -62.139258 -7.685373 13.663604 -1.070404 -25.882135 4.910030 -3.816358 -17.950210 -25.007683 17.657227 -3.922957 -1.142774 61.145353 5.040365 13.328861 -5.450454 30.078369 -0.232364 10.285033 11.325581 -17.638316 
-15.081602 17.515188 96.951607 -177.513027 1.083277 85.195220 0.454565 0.945274 6.236438 2.484961 -6.296223 -1.048662 -8.353433 4.118012 -2.077654 nan nan nan 0.591802 -3.954571 8.232367 -0.163480 -3.474237 -1.238965 12.683718 0.220650 1.019797 nan nan nan -0.323933 2.576720 7.863662 1.993119 -3.011894 1.854923 2.297040 -0.891988 -0.677805 1.603628 -3.270086 -0.968373 4.507973 -6.379988 -2.914829 -18.395721 3.480599 2.162859 -62.154398 -7.705335 13.648951 -1.099210 -25.843887 4.951632 -3.655077 -18.004426 -24.809073 17.644510 -3.920233 -1.127359 61.212849 4.977747 13.330598 -5.443550 30.147209 -0.246990 9.734151 11.453974 -17.510375 
-15.081303 17.515558 96.945335 -177.598296 1.084664 85.223813 0.457805 0.950399 6.248791 2.475477 -6.259256 -1.116273 -8.296873 4.163879 -2.056884 nan nan nan 0.589063 -3.977080 8.183468 -0.170059 -3.382750 -1.235136 12.620478 0.229157 1.011559 nan nan nan -0.270055 2.592971 7.877883 1.961771 -2.974189 1.810740 2.262484 -0.869570 -0.681631 1.599226 -3.270095 -0.937861 4.537882 -6.419688 -2.893112 -18.337385 3.499594 2.192512 -62.212693 -7.748543 13.646918 -1.078816 -25.871706 4.929515 -3.551654 -17.893915 -25.056245 17.592322 -3.952872 -1.102935 61.407036 4.979792 13.352583 -5.560694 30.099653 -0.343554 9.248346 11.459217 -17.251647 
-15.076830 17.521662 96.941307 -177.631508 1.071636 85.236439 0.448644 0.940924 6.266618 2.496928 -6.263455 -1.148707 -8.245789 4.178991 -2.059930 nan nan nan 0.606247 -4.011694 8.186987 -0.243918 -3.290779 -1.270140 12.579008 0.182743 0.998234 nan nan nan -0.278512 2.598045 7.892474 1.944719 -2.973215 1.773363 2.272167 -0.866312 -0.671643 1.627934 -3.235046 -0.928515 4.544842 -6.355477 -2.897212 -18.297142 3.537549 2.181385 -62.247398 -7.762377 13.616208 -1.103396 -25.852081 5.043998 -3.527048 -17.802791 -25.006724 17.510909 -3.966070 -1.086073 61.541092 4.980183 13.383358 -5.598418 30.088664 -0.314031 9.092651 11.451686 -17.037197 
-15.076672 17.519169 96.938042 -177.603657 1.068638 85.278174 0.425999 0.956538 6.213438 2.559227 -6.314789 -1.122789 -8.241125 4.186520 -2.140066 nan nan nan 0.596343 -4.026531 8.140594 -0.228340 -3.260494 -1.250100 12.625688 0.183912 0.968870 nan nan nan -0.304210 2.575272 7.875259 1.942324 -2.988972 1.742990 2.300389 -0.856223 -0.675795 1.677788 -3.200672 -0.966985 4.500501 -6.327645 -2.867227 -18.327120 3.536186 2.154923 -62.191278 -7.734357 13.630008 -1.179816 -25.853600 5.252682 -3.630154 -17.760725 -24.739885 17.469869 -3.938237 -1.033036 61.568130 4.984908 13.390023 -5.609820 30.131250 -0.321641 9.138813 11.429817 -17.027947 
-15.075521 17.520958 96.936592 -177.610999 1.074959 85.298560 0.429960 0.954650 6.202158 2.563989 -6.296111 -1.134052 -8.227701 4.201236 -2.160010 nan nan nan 0.599716 -4.045865 8.134075 -0.225917 -3.202048 -1.279219 12.604731 0.184288 0.990305 nan nan nan -0.295854 2.578860 7.866940 1.944951 -2.990036 1.748514 2.303771 -0.850112 -0.696673 1.673025 -3.209891 -0.979780 4.489597 -6.330630 -2.846881 -18.347727 3.540625 2.148432 -62.175879 -7.724727 13.629406 -1.178700 -25.872521 5.252731 -3.642614 -17.749469 -24.745508 17.477598 -3.925243 -1.014193 61.557929 4.984071 13.387083 -5.634180 30.141603 -0.343102 9.153343 11.416097 -17.049888 
-15.075530 17.525249 96.936943 -177.610344 1.081786 85.319755 0.444032 0.952927 6.185688 2.547244 -6.285508 -1.139730 -8.216576 4.204229 -2.158861 nan nan nan 0.601710 -4.072309 8.127305 -0.216792 -3.155762 -1.315524 12.576383 0.172289 1.012163 nan nan nan -0.289839 2.586520 7.854753 1.953377 -2.992256 1.754185 2.308386 -0.847969 -0.714211 1.668031 -3.219363 -0.982499 4.485518 -6.331207 -2.838292 -18.375600 3.531116 2.159166 -62.150715 -7.721645 13.633086 -1.182139 -25.902650 5.244677 -3.606146 -17.746581 -24.761223 17.489977 -3.921582 -1.003425 61.536694 4.969593 13.392459 -5.637859 30.182447 -0.353771 9.109469 11.416801 -17.097338 
-15.067306 17.534113 96.937332 -177.603711 1.070574 85.355487 0.462175 0.970705 6.166650 2.487538 -6.276312 -1.180107 -8.189414 4.187754 -2.101636 nan nan nan 0.588401 -4.124255 8.126249 -0.202683 -3.053079 -1.390229 12.476847 0.146054 1.033680 nan nan nan -0.330684 2.600709 7.831731 1.962456 -2.999798 1.803563 2.333028 -0.871333 -0.776440 1.677838 -3.232776 -0.957662 4.477442 -6.287198 -2.883885 -18.449808 3.519359 2.207026 -62.050902 -7.699817 13.624586 -1.171426 -26.071054 5.120709 -3.517268 -17.738467 -24.966478 17.495226 -3.906641 -0.966396 61.490836 4.934323 13.449349 -5.570034 30.362579 -0.458406 8.866902 11.305815 -17.447884 
-15.063808 17.554358 96.925972 -177.557764 1.049172 85.381645 0.424110 0.993617 6.135190 2.532421 -6.337854 -1.172539 -8.136088 4.170422 -2.055925 nan nan nan 0.549566 -4.222141 8.127541 -0.190722 -3.012292 -1.407854 12.537900 0.179887 1.089244 nan nan nan -0.409598 2.619391 7.766104 1.986147 -3.037185 1.826582 2.364311 -0.914504 -0.765190 1.688854 -3.227327 -0.947960 4.498673 -6.302975 -2.870165 -18.373823 3.552112 2.217179 -62.090140 -7.701264 13.642632 -1.235586 -26.167954 5.143581 -3.477449 -17.615624 -25.183985 17.485148 -3.904891 -0.938642 61.494206 4.971802 13.467632 -5.550520 30.356640 -0.447391 8.761379 11.157673 -17.402370 
-15.069828 17.568195 96.918922 -177.533591 1.041472 85.366828 0.416757 1.004051 6.160791 2.544297 -6.343916 -1.160853 -8.147920 4.142075 -2.112111 nan nan nan 0.515892 -4.294475 8.174217 -0.165581 -3.055742 -1.444074 12.598843 0.198452 1.074845 nan nan nan -0.424228 2.651690 7.793790 1.998921 -3.047325 1.788004 2.375546 -0.932034 -0.711904 1.637842 -3.186421 -1.066508 4.526315 -6.375995 -2.802176 -18.292330 3.527466 2.199913 -62.183544 -7.721993 13.652619 -1.211988 -26.146971 5.145976 -3.566548 -17.638915 -25.236200 17.529578 -3.933342 -1.013929 61.463682 4.982232 13.384907 -5.573601 30.255032 -0.385232 9.026471 11.268608 -17.083780 
-15.078760 17.571028 96.913483 -177.514928 1.041632 85.367685 0.406707 0.949058 6.161447 2.541310 -6.324654 -1.131757 -8.128190 4.122173 -2.190868 nan nan nan 0.487515 -4.348421 8.165113 -0.139179 -3.127474 -1.413176 12.499572 0.209092 1.014388 nan nan nan -0.421555 2.677170 7.801399 1.999458 -3.056892 1.784770 2.382061 -0.931519 -0.686851 1.611762 -3.208169 -1.121097 4.561961 -6.422096 -2.795405 -18.228787 3.525131 2.138576 -62.312399 -7.741788 13.653468 -1.102184 -26.132982 5.012318 -3.644160 -17.659426 -25.270134 17.489324 -3.950524 -1.030488 61.538261 4.983986 13.311659 -5.679514 30.202114 -0.398893 9.346687 11.367083 -16.898094 
-15.081150 17.578756 96.903999 -177.528212 1.005616 85.448771 0.377106 0.933986 6.063758 2.505953 -6.279591 -1.105506 -8.159007 4.106913 -2.215143 nan nan nan 0.482478 -4.318670 8.083454 -0.191762 -3.096177 -1.420366 12.395544 0.182205 0.952557 nan nan nan -0.465417 2.666073 7.749173 1.998853 -3.049310 1.691676 2.402078 -0.933755 -0.625308 1.643134 -3.200838 -1.126899 4.497599 -6.370736 -2.795835 -18.198933 3.598595 2.112733 -62.332050 -7.742073 13.710829 -1.171028 -26.169300 5.036217 -3.376963 -17.726840 -25.434351 17.423740 -3.983844 -0.998807 61.587988 4.994186 13.398803 -5.577295 30.218096 -0.444692 9.023561 11.440711 -17.280095 
